# xmcd
#
# Track frame offsets:
#	150
#	12695
#	25722
#	38168
#	55384
#	68314
#	78567
#	88573
#	103837
#	119042
#	138380
#	148711
#	161391
#	177016
#	194467
#	207000
#
# Disc length: 2903
#
# Revision: 2
# Processed by: cddbd v1.5.1PL0 Copyright (c) Steve Scherf et al.
# Submitted via: audiograbber 1.83.01
# Normalized: r1:DSETVAR1
#
DISCID=da0b5510
DTITLE=Various Artist - Country Superstars Vol 3 CD 1
DYEAR=1900
DGENRE=
TTITLE0=Charlie Rich - Behind Closed Doors
TTITLE1=Charlie Rich - Most Beautiful Girl
TTITLE2=Charlie Rich - Who Will The Next Fool Be
TTITLE3=Charlie Rich - My Elusive Dreams
TTITLE4=Charlie Rich - Charlies Got The Blues
TTITLE5=Charlie Rich - Lonely Weekends
TTITLE6=Charlie Rich - Mohair Sam
TTITLE7=Charlie Rich - On My Knees
TTITLE8=Bobby Bare - For The Good Times
TTITLE9=Bobby Bare - Me and Bobby Mcgee
TTITLE10=Bobby Bare - Make it Through The Night
TTITLE11=Bobby Bare - Lovin' Her Was Easier
TTITLE12=Bobby Bare - Leaving on A Jet Plane
TTITLE13=Bobby Bare - Sylvias Mother
TTITLE14=Bobby Bare - Year That Clayton Delaney Died
TTITLE15=Bobby Bare - Want to Go Home
EXTD=
EXTT0=
EXTT1=
EXTT2=
EXTT3=
EXTT4=
EXTT5=
EXTT6=
EXTT7=
EXTT8=
EXTT9=
EXTT10=
EXTT11=
EXTT12=
EXTT13=
EXTT14=
EXTT15=
PLAYORDER=
